<?xml version="1.0" encoding="UTF-8" standalone="no"?>
<!DOCTYPE svg PUBLIC "-//W3C//DTD SVG 1.1//EN"
 "http://www.w3.org/Graphics/SVG/1.1/DTD/svg11.dtd">
<!-- Generated by graphviz version 13.0.1 (20250615.1724)
 -->
<!-- Pages: 1 -->
<svg width="258pt" height="404pt"
 viewBox="0.00 0.00 258.00 404.00" xmlns="http://www.w3.org/2000/svg" xmlns:xlink="http://www.w3.org/1999/xlink">
<g id="graph0" class="graph" transform="scale(1 1) rotate(0) translate(4 400)">
<polygon fill="white" stroke="none" points="-4,4 -4,-400 254,-400 254,4 -4,4"/>
<!-- aaa -->
<g id="node1" class="node">
<title>aaa</title>
<ellipse fill="none" stroke="black" cx="135" cy="-378" rx="27" ry="18"/>
<text xml:space="preserve" text-anchor="middle" x="135" y="-372.95" font-family="Times,serif" font-size="14.00">aaa</text>
</g>
<!-- you -->
<g id="node2" class="node">
<title>you</title>
<ellipse fill="none" stroke="black" cx="99" cy="-306" rx="27" ry="18"/>
<text xml:space="preserve" text-anchor="middle" x="99" y="-300.95" font-family="Times,serif" font-size="14.00">you</text>
</g>
<!-- aaa&#45;&gt;you -->
<g id="edge1" class="edge">
<title>aaa&#45;&gt;you</title>
<path fill="none" stroke="black" d="M126.65,-360.76C122.42,-352.55 117.19,-342.37 112.42,-333.09"/>
<polygon fill="black" stroke="black" points="115.68,-331.79 108,-324.49 109.46,-334.99 115.68,-331.79"/>
</g>
<!-- hhh -->
<g id="node3" class="node">
<title>hhh</title>
<ellipse fill="none" stroke="black" cx="171" cy="-306" rx="27" ry="18"/>
<text xml:space="preserve" text-anchor="middle" x="171" y="-300.95" font-family="Times,serif" font-size="14.00">hhh</text>
</g>
<!-- aaa&#45;&gt;hhh -->
<g id="edge2" class="edge">
<title>aaa&#45;&gt;hhh</title>
<path fill="none" stroke="black" d="M143.35,-360.76C147.58,-352.55 152.81,-342.37 157.58,-333.09"/>
<polygon fill="black" stroke="black" points="160.54,-334.99 162,-324.49 154.32,-331.79 160.54,-334.99"/>
</g>
<!-- bbb -->
<g id="node4" class="node">
<title>bbb</title>
<ellipse fill="none" stroke="black" cx="36" cy="-234" rx="27" ry="18"/>
<text xml:space="preserve" text-anchor="middle" x="36" y="-228.95" font-family="Times,serif" font-size="14.00">bbb</text>
</g>
<!-- you&#45;&gt;bbb -->
<g id="edge3" class="edge">
<title>you&#45;&gt;bbb</title>
<path fill="none" stroke="black" d="M85.64,-290.15C77.29,-280.87 66.35,-268.73 56.87,-258.19"/>
<polygon fill="black" stroke="black" points="59.65,-256.04 50.35,-250.95 54.44,-260.72 59.65,-256.04"/>
</g>
<!-- ccc -->
<g id="node5" class="node">
<title>ccc</title>
<ellipse fill="none" stroke="black" cx="108" cy="-234" rx="27" ry="18"/>
<text xml:space="preserve" text-anchor="middle" x="108" y="-228.95" font-family="Times,serif" font-size="14.00">ccc</text>
</g>
<!-- you&#45;&gt;ccc -->
<g id="edge4" class="edge">
<title>you&#45;&gt;ccc</title>
<path fill="none" stroke="black" d="M101.22,-287.7C102.17,-280.32 103.3,-271.52 104.37,-263.25"/>
<polygon fill="black" stroke="black" points="107.8,-263.97 105.61,-253.61 100.86,-263.08 107.8,-263.97"/>
</g>
<!-- hhh&#45;&gt;ccc -->
<g id="edge14" class="edge">
<title>hhh&#45;&gt;ccc</title>
<path fill="none" stroke="black" d="M157.64,-290.15C149.29,-280.87 138.35,-268.73 128.87,-258.19"/>
<polygon fill="black" stroke="black" points="131.65,-256.04 122.35,-250.95 126.44,-260.72 131.65,-256.04"/>
</g>
<!-- fff -->
<g id="node8" class="node">
<title>fff</title>
<ellipse fill="none" stroke="black" cx="171" cy="-162" rx="27" ry="18"/>
<text xml:space="preserve" text-anchor="middle" x="171" y="-156.95" font-family="Times,serif" font-size="14.00">fff</text>
</g>
<!-- hhh&#45;&gt;fff -->
<g id="edge15" class="edge">
<title>hhh&#45;&gt;fff</title>
<path fill="none" stroke="black" d="M171,-287.59C171,-263.61 171,-220.14 171,-191.42"/>
<polygon fill="black" stroke="black" points="174.5,-191.62 171,-181.62 167.5,-191.62 174.5,-191.62"/>
</g>
<!-- iii -->
<g id="node11" class="node">
<title>iii</title>
<ellipse fill="none" stroke="black" cx="223" cy="-90" rx="27" ry="18"/>
<text xml:space="preserve" text-anchor="middle" x="223" y="-84.95" font-family="Times,serif" font-size="14.00">iii</text>
</g>
<!-- hhh&#45;&gt;iii -->
<g id="edge16" class="edge">
<title>hhh&#45;&gt;iii</title>
<path fill="none" stroke="black" d="M176.45,-288.16C184.03,-264.29 197.87,-219.15 207,-180 211.69,-159.88 215.79,-136.92 218.66,-119.36"/>
<polygon fill="black" stroke="black" points="222.09,-120.09 220.21,-109.66 215.18,-118.99 222.09,-120.09"/>
</g>
<!-- ddd -->
<g id="node6" class="node">
<title>ddd</title>
<ellipse fill="none" stroke="black" cx="99" cy="-162" rx="27" ry="18"/>
<text xml:space="preserve" text-anchor="middle" x="99" y="-156.95" font-family="Times,serif" font-size="14.00">ddd</text>
</g>
<!-- bbb&#45;&gt;ddd -->
<g id="edge5" class="edge">
<title>bbb&#45;&gt;ddd</title>
<path fill="none" stroke="black" d="M49.36,-218.15C57.71,-208.87 68.65,-196.73 78.13,-186.19"/>
<polygon fill="black" stroke="black" points="80.56,-188.72 84.65,-178.95 75.35,-184.04 80.56,-188.72"/>
</g>
<!-- eee -->
<g id="node7" class="node">
<title>eee</title>
<ellipse fill="none" stroke="black" cx="27" cy="-162" rx="27" ry="18"/>
<text xml:space="preserve" text-anchor="middle" x="27" y="-156.95" font-family="Times,serif" font-size="14.00">eee</text>
</g>
<!-- bbb&#45;&gt;eee -->
<g id="edge6" class="edge">
<title>bbb&#45;&gt;eee</title>
<path fill="none" stroke="black" d="M33.78,-215.7C32.83,-208.32 31.7,-199.52 30.63,-191.25"/>
<polygon fill="black" stroke="black" points="34.14,-191.08 29.39,-181.61 27.2,-191.97 34.14,-191.08"/>
</g>
<!-- ccc&#45;&gt;ddd -->
<g id="edge7" class="edge">
<title>ccc&#45;&gt;ddd</title>
<path fill="none" stroke="black" d="M105.78,-215.7C104.83,-208.32 103.7,-199.52 102.63,-191.25"/>
<polygon fill="black" stroke="black" points="106.14,-191.08 101.39,-181.61 99.2,-191.97 106.14,-191.08"/>
</g>
<!-- ccc&#45;&gt;eee -->
<g id="edge8" class="edge">
<title>ccc&#45;&gt;eee</title>
<path fill="none" stroke="black" d="M92,-219.17C80.46,-209.2 64.67,-195.56 51.55,-184.21"/>
<polygon fill="black" stroke="black" points="53.97,-181.68 44.11,-177.79 49.39,-186.98 53.97,-181.68"/>
</g>
<!-- ccc&#45;&gt;fff -->
<g id="edge9" class="edge">
<title>ccc&#45;&gt;fff</title>
<path fill="none" stroke="black" d="M121.36,-218.15C129.71,-208.87 140.65,-196.73 150.13,-186.19"/>
<polygon fill="black" stroke="black" points="152.56,-188.72 156.65,-178.95 147.35,-184.04 152.56,-188.72"/>
</g>
<!-- ggg -->
<g id="node9" class="node">
<title>ggg</title>
<ellipse fill="none" stroke="black" cx="107" cy="-90" rx="27" ry="18"/>
<text xml:space="preserve" text-anchor="middle" x="107" y="-84.95" font-family="Times,serif" font-size="14.00">ggg</text>
</g>
<!-- ddd&#45;&gt;ggg -->
<g id="edge10" class="edge">
<title>ddd&#45;&gt;ggg</title>
<path fill="none" stroke="black" d="M100.98,-143.7C101.81,-136.41 102.8,-127.73 103.74,-119.54"/>
<polygon fill="black" stroke="black" points="107.22,-119.94 104.87,-109.61 100.26,-119.15 107.22,-119.94"/>
</g>
<!-- out -->
<g id="node10" class="node">
<title>out</title>
<ellipse fill="none" stroke="black" cx="134" cy="-18" rx="27" ry="18"/>
<text xml:space="preserve" text-anchor="middle" x="134" y="-12.95" font-family="Times,serif" font-size="14.00">out</text>
</g>
<!-- eee&#45;&gt;out -->
<g id="edge11" class="edge">
<title>eee&#45;&gt;out</title>
<path fill="none" stroke="black" d="M32.94,-144.08C40.08,-125.25 53.34,-94.51 71,-72 80.96,-59.31 94.37,-47.51 106.27,-38.28"/>
<polygon fill="black" stroke="black" points="108.26,-41.16 114.17,-32.37 104.07,-35.56 108.26,-41.16"/>
</g>
<!-- fff&#45;&gt;out -->
<g id="edge12" class="edge">
<title>fff&#45;&gt;out</title>
<path fill="none" stroke="black" d="M166.54,-143.87C160.29,-119.88 148.85,-75.99 141.34,-47.16"/>
<polygon fill="black" stroke="black" points="144.77,-46.45 138.86,-37.65 138,-48.21 144.77,-46.45"/>
</g>
<!-- ggg&#45;&gt;out -->
<g id="edge13" class="edge">
<title>ggg&#45;&gt;out</title>
<path fill="none" stroke="black" d="M113.54,-72.05C116.52,-64.32 120.13,-54.96 123.48,-46.27"/>
<polygon fill="black" stroke="black" points="126.65,-47.79 126.98,-37.2 120.12,-45.27 126.65,-47.79"/>
</g>
<!-- iii&#45;&gt;out -->
<g id="edge17" class="edge">
<title>iii&#45;&gt;out</title>
<path fill="none" stroke="black" d="M206.26,-75.83C193.17,-65.54 174.73,-51.04 159.76,-39.26"/>
<polygon fill="black" stroke="black" points="162.18,-36.71 152.16,-33.28 157.85,-42.21 162.18,-36.71"/>
</g>
</g>
</svg>
