<?xml version="1.0" encoding="UTF-8" standalone="no"?>
<!DOCTYPE svg PUBLIC "-//W3C//DTD SVG 1.1//EN"
 "http://www.w3.org/Graphics/SVG/1.1/DTD/svg11.dtd">
<!-- Generated by graphviz version 12.2.0 (20241103.1931)
 -->
<!-- Pages: 1 -->
<svg width="278pt" height="908pt"
 viewBox="0.00 0.00 278.00 908.00" xmlns="http://www.w3.org/2000/svg" xmlns:xlink="http://www.w3.org/1999/xlink">
<g id="graph0" class="graph" transform="scale(1 1) rotate(0) translate(4 904)">
<polygon fill="white" stroke="none" points="-4,4 -4,-904 274,-904 274,4 -4,4"/>
<!-- kh -->
<g id="node1" class="node">
<title>kh</title>
<ellipse fill="none" stroke="black" cx="103" cy="-882" rx="27" ry="18"/>
<text text-anchor="middle" x="103" y="-876.95" font-family="Times,serif" font-size="14.00">kh</text>
</g>
<!-- tc -->
<g id="node2" class="node">
<title>tc</title>
<ellipse fill="none" stroke="black" cx="215" cy="-810" rx="27" ry="18"/>
<text text-anchor="middle" x="215" y="-804.95" font-family="Times,serif" font-size="14.00">tc</text>
</g>
<!-- kh&#45;&#45;tc -->
<g id="edge1" class="edge">
<title>kh&#45;&#45;tc</title>
<path fill="none" stroke="black" d="M122.25,-868.97C142.77,-856.15 175.06,-835.96 195.62,-823.11"/>
</g>
<!-- ub -->
<g id="node10" class="node">
<title>ub</title>
<ellipse fill="none" stroke="black" cx="94" cy="-594" rx="27" ry="18"/>
<text text-anchor="middle" x="94" y="-588.95" font-family="Times,serif" font-size="14.00">ub</text>
</g>
<!-- kh&#45;&#45;ub -->
<g id="edge12" class="edge">
<title>kh&#45;&#45;ub</title>
<path fill="none" stroke="black" d="M102.45,-863.54C100.84,-812.36 96.14,-663.12 94.54,-612.23"/>
</g>
<!-- ta -->
<g id="node14" class="node">
<title>ta</title>
<ellipse fill="none" stroke="black" cx="105" cy="-90" rx="27" ry="18"/>
<text text-anchor="middle" x="105" y="-84.95" font-family="Times,serif" font-size="14.00">ta</text>
</g>
<!-- kh&#45;&#45;ta -->
<g id="edge28" class="edge">
<title>kh&#45;&#45;ta</title>
<path fill="none" stroke="black" d="M85.06,-868.38C55.55,-846 0,-796.26 0,-739 0,-739 0,-739 0,-233 0,-175.36 56.63,-125.8 86.71,-103.53"/>
</g>
<!-- td -->
<g id="node15" class="node">
<title>td</title>
<ellipse fill="none" stroke="black" cx="215" cy="-738" rx="27" ry="18"/>
<text text-anchor="middle" x="215" y="-732.95" font-family="Times,serif" font-size="14.00">td</text>
</g>
<!-- tc&#45;&#45;td -->
<g id="edge15" class="edge">
<title>tc&#45;&#45;td</title>
<path fill="none" stroke="black" d="M215,-791.7C215,-780.85 215,-766.92 215,-756.1"/>
</g>
<!-- qp -->
<g id="node3" class="node">
<title>qp</title>
<ellipse fill="none" stroke="black" cx="150" cy="-666" rx="27" ry="18"/>
<text text-anchor="middle" x="150" y="-660.95" font-family="Times,serif" font-size="14.00">qp</text>
</g>
<!-- qp&#45;&#45;kh -->
<g id="edge2" class="edge">
<title>qp&#45;&#45;kh</title>
<path fill="none" stroke="black" d="M146.22,-684.23C137.4,-724.38 115.57,-823.78 106.77,-863.85"/>
</g>
<!-- qp&#45;&#45;ub -->
<g id="edge6" class="edge">
<title>qp&#45;&#45;ub</title>
<path fill="none" stroke="black" d="M137.85,-649.81C128.46,-638.07 115.51,-621.89 106.13,-610.16"/>
</g>
<!-- de -->
<g id="node4" class="node">
<title>de</title>
<ellipse fill="none" stroke="black" cx="215" cy="-162" rx="27" ry="18"/>
<text text-anchor="middle" x="215" y="-156.95" font-family="Times,serif" font-size="14.00">de</text>
</g>
<!-- cg -->
<g id="node5" class="node">
<title>cg</title>
<ellipse fill="none" stroke="black" cx="211" cy="-378" rx="27" ry="18"/>
<text text-anchor="middle" x="211" y="-372.95" font-family="Times,serif" font-size="14.00">cg</text>
</g>
<!-- de&#45;&#45;cg -->
<g id="edge3" class="edge">
<title>de&#45;&#45;cg</title>
<path fill="none" stroke="black" d="M214.68,-180.23C213.93,-220.38 212.07,-319.78 211.32,-359.85"/>
</g>
<!-- co -->
<g id="node7" class="node">
<title>co</title>
<ellipse fill="none" stroke="black" cx="187" cy="-18" rx="27" ry="18"/>
<text text-anchor="middle" x="187" y="-12.95" font-family="Times,serif" font-size="14.00">co</text>
</g>
<!-- de&#45;&#45;co -->
<g id="edge14" class="edge">
<title>de&#45;&#45;co</title>
<path fill="none" stroke="black" d="M211.62,-143.87C206.24,-116.58 195.78,-63.52 190.39,-36.19"/>
</g>
<!-- de&#45;&#45;ta -->
<g id="edge23" class="edge">
<title>de&#45;&#45;ta</title>
<path fill="none" stroke="black" d="M195.84,-148.81C175.65,-135.96 144.05,-115.85 123.94,-103.05"/>
</g>
<!-- tb -->
<g id="node11" class="node">
<title>tb</title>
<ellipse fill="none" stroke="black" cx="169" cy="-306" rx="27" ry="18"/>
<text text-anchor="middle" x="169" y="-300.95" font-family="Times,serif" font-size="14.00">tb</text>
</g>
<!-- cg&#45;&#45;tb -->
<g id="edge7" class="edge">
<title>cg&#45;&#45;tb</title>
<path fill="none" stroke="black" d="M201.26,-360.76C194.47,-349.46 185.46,-334.44 178.69,-323.15"/>
</g>
<!-- ka -->
<g id="node6" class="node">
<title>ka</title>
<ellipse fill="none" stroke="black" cx="165" cy="-234" rx="27" ry="18"/>
<text text-anchor="middle" x="165" y="-228.95" font-family="Times,serif" font-size="14.00">ka</text>
</g>
<!-- ka&#45;&#45;de -->
<g id="edge27" class="edge">
<title>ka&#45;&#45;de</title>
<path fill="none" stroke="black" d="M176.1,-217.46C184.38,-205.86 195.66,-190.08 203.93,-178.49"/>
</g>
<!-- ka&#45;&#45;co -->
<g id="edge4" class="edge">
<title>ka&#45;&#45;co</title>
<path fill="none" stroke="black" d="M166.76,-215.85C170.88,-175.78 181.1,-76.38 185.23,-36.23"/>
</g>
<!-- co&#45;&#45;tc -->
<g id="edge29" class="edge">
<title>co&#45;&#45;tc</title>
<path fill="none" stroke="black" d="M202.22,-33.13C226.18,-56.99 270,-107.89 270,-161 270,-667 270,-667 270,-667 270,-707.45 266.88,-718.8 251,-756 245.15,-769.71 235.56,-783.59 227.75,-793.7"/>
</g>
<!-- yn -->
<g id="node8" class="node">
<title>yn</title>
<ellipse fill="none" stroke="black" cx="215" cy="-594" rx="27" ry="18"/>
<text text-anchor="middle" x="215" y="-588.95" font-family="Times,serif" font-size="14.00">yn</text>
</g>
<!-- yn&#45;&#45;cg -->
<g id="edge11" class="edge">
<title>yn&#45;&#45;cg</title>
<path fill="none" stroke="black" d="M214.68,-575.85C213.93,-535.78 212.07,-436.38 211.32,-396.23"/>
</g>
<!-- aq -->
<g id="node9" class="node">
<title>aq</title>
<ellipse fill="none" stroke="black" cx="169" cy="-450" rx="27" ry="18"/>
<text text-anchor="middle" x="169" y="-444.95" font-family="Times,serif" font-size="14.00">aq</text>
</g>
<!-- yn&#45;&#45;aq -->
<g id="edge5" class="edge">
<title>yn&#45;&#45;aq</title>
<path fill="none" stroke="black" d="M209.54,-576.15C200.69,-548.82 183.3,-495.14 174.45,-467.82"/>
</g>
<!-- aq&#45;&#45;cg -->
<g id="edge20" class="edge">
<title>aq&#45;&#45;cg</title>
<path fill="none" stroke="black" d="M178.74,-432.76C185.53,-421.46 194.54,-406.44 201.31,-395.15"/>
</g>
<!-- vc -->
<g id="node12" class="node">
<title>vc</title>
<ellipse fill="none" stroke="black" cx="104" cy="-522" rx="27" ry="18"/>
<text text-anchor="middle" x="104" y="-516.95" font-family="Times,serif" font-size="14.00">vc</text>
</g>
<!-- ub&#45;&#45;vc -->
<g id="edge22" class="edge">
<title>ub&#45;&#45;vc</title>
<path fill="none" stroke="black" d="M96.47,-575.7C98.02,-564.85 100.01,-550.92 101.56,-540.1"/>
</g>
<!-- tb&#45;&#45;ka -->
<g id="edge9" class="edge">
<title>tb&#45;&#45;ka</title>
<path fill="none" stroke="black" d="M168.01,-287.7C167.39,-276.85 166.6,-262.92 165.98,-252.1"/>
</g>
<!-- tb&#45;&#45;vc -->
<g id="edge31" class="edge">
<title>tb&#45;&#45;vc</title>
<path fill="none" stroke="black" d="M163.86,-323.94C151.72,-363.89 121.41,-463.68 109.21,-503.85"/>
</g>
<!-- wq -->
<g id="node16" class="node">
<title>wq</title>
<ellipse fill="none" stroke="black" cx="86" cy="-234" rx="27" ry="18"/>
<text text-anchor="middle" x="86" y="-228.95" font-family="Times,serif" font-size="14.00">wq</text>
</g>
<!-- tb&#45;&#45;wq -->
<g id="edge16" class="edge">
<title>tb&#45;&#45;wq</title>
<path fill="none" stroke="black" d="M152.6,-291.17C138.05,-278.9 116.9,-261.06 102.36,-248.8"/>
</g>
<!-- vc&#45;&#45;aq -->
<g id="edge8" class="edge">
<title>vc&#45;&#45;aq</title>
<path fill="none" stroke="black" d="M117.78,-506.15C128.82,-494.28 144.21,-477.7 155.24,-465.82"/>
</g>
<!-- wh -->
<g id="node13" class="node">
<title>wh</title>
<ellipse fill="none" stroke="black" cx="242" cy="-882" rx="27" ry="18"/>
<text text-anchor="middle" x="242" y="-876.95" font-family="Times,serif" font-size="14.00">wh</text>
</g>
<!-- wh&#45;&#45;tc -->
<g id="edge10" class="edge">
<title>wh&#45;&#45;tc</title>
<path fill="none" stroke="black" d="M235.46,-864.05C231.22,-853.05 225.71,-838.76 221.48,-827.79"/>
</g>
<!-- wh&#45;&#45;qp -->
<g id="edge30" class="edge">
<title>wh&#45;&#45;qp</title>
<path fill="none" stroke="black" d="M222,-869.48C207.7,-860.15 189.24,-845.69 179,-828 151.96,-781.3 149.08,-715.23 149.4,-684.27"/>
</g>
<!-- wh&#45;&#45;yn -->
<g id="edge26" class="edge">
<title>wh&#45;&#45;yn</title>
<path fill="none" stroke="black" d="M251.85,-864.97C257.51,-854.79 264.06,-841.1 267,-828 270.5,-812.39 268.75,-807.9 267,-792 259.49,-723.61 233.38,-645.42 221.26,-611.8"/>
</g>
<!-- wh&#45;&#45;td -->
<g id="edge17" class="edge">
<title>wh&#45;&#45;td</title>
<path fill="none" stroke="black" d="M247.55,-864.21C252.69,-846.02 258.49,-816.34 251,-792 246.62,-777.75 236.96,-763.9 228.75,-753.93"/>
</g>
<!-- ta&#45;&#45;ka -->
<g id="edge18" class="edge">
<title>ta&#45;&#45;ka</title>
<path fill="none" stroke="black" d="M112.11,-107.82C123.65,-135.14 146.33,-188.82 157.88,-216.15"/>
</g>
<!-- ta&#45;&#45;co -->
<g id="edge13" class="edge">
<title>ta&#45;&#45;co</title>
<path fill="none" stroke="black" d="M121.2,-75.17C135.58,-62.9 156.47,-45.06 170.83,-32.8"/>
</g>
<!-- td&#45;&#45;qp -->
<g id="edge19" class="edge">
<title>td&#45;&#45;qp</title>
<path fill="none" stroke="black" d="M201.22,-722.15C190.18,-710.28 174.79,-693.7 163.76,-681.82"/>
</g>
<!-- td&#45;&#45;yn -->
<g id="edge32" class="edge">
<title>td&#45;&#45;yn</title>
<path fill="none" stroke="black" d="M215,-719.59C215,-692.19 215,-639.32 215,-612.11"/>
</g>
<!-- wq&#45;&#45;aq -->
<g id="edge24" class="edge">
<title>wq&#45;&#45;aq</title>
<path fill="none" stroke="black" d="M92.48,-251.71C107.97,-291.64 146.97,-392.2 162.49,-432.21"/>
</g>
<!-- wq&#45;&#45;ub -->
<g id="edge21" class="edge">
<title>wq&#45;&#45;ub</title>
<path fill="none" stroke="black" d="M76.75,-251.02C62.8,-276.71 38,-329.12 38,-377 38,-451 38,-451 38,-451 38,-499.76 66.93,-551.79 83.2,-577.19"/>
</g>
<!-- wq&#45;&#45;vc -->
<g id="edge25" class="edge">
<title>wq&#45;&#45;vc</title>
<path fill="none" stroke="black" d="M87.08,-252.23C90.29,-303.12 99.68,-452.36 102.9,-503.54"/>
</g>
</g>
</svg>
